<svg width="31" height="30" viewBox="0 0 31 30" fill="none" xmlns="http://www.w3.org/2000/svg">
<path d="M28.5 15C28.5 22.176 22.6825 28 15.5 28C8.3175 28 2.5 22.176 2.5 15C2.5 7.8175 8.3175 2 15.5 2C22.6825 2 28.5 7.8175 28.5 15Z" fill="#DEDDDD"/>
<path d="M21.014 11.0676C20.9491 11.109 19.4051 11.9823 19.4051 13.9187C19.4779 16.1271 21.3536 16.9016 21.3857 16.9016C21.3536 16.9429 21.1025 17.9566 20.359 19.0191C19.769 19.9344 19.114 20.8572 18.1195 20.8572C17.1735 20.8572 16.8339 20.2472 15.7424 20.2472C14.5701 20.2472 14.2385 20.8572 13.341 20.8572C12.3464 20.8572 11.643 19.8849 11.0208 18.9782C10.2124 17.7916 9.52528 15.9293 9.50102 14.1412C9.48468 13.1937 9.66291 12.2623 10.1153 11.4712C10.7539 10.3667 11.894 9.61701 13.139 9.59229C14.0929 9.5595 14.9419 10.2598 15.5241 10.2598C16.082 10.2598 17.125 9.59229 18.3051 9.59229C18.8145 9.59283 20.1729 9.74922 21.014 11.0676ZM15.4434 9.40311C15.2736 8.53782 15.7424 7.67253 16.179 7.12057C16.7369 6.45307 17.618 6 18.3779 6C18.4264 6.86529 18.119 7.71392 17.5695 8.33198C17.0765 8.99949 16.2275 9.502 15.4434 9.40311Z" fill="#0C0C0C"/>
</svg>
