<svg width="24" height="24" viewBox="0 0 24 24" fill="none" xmlns="http://www.w3.org/2000/svg">
<circle cx="12" cy="12" r="12" fill="#DEDDDD"/>
<path d="M12.1633 10.5449V13.6431H16.5567C16.3638 14.6395 15.7848 15.4831 14.9166 16.0504L17.5659 18.065C19.1095 16.6686 20.0001 14.6177 20.0001 12.1814C20.0001 11.6141 19.9482 11.0686 19.8517 10.545L12.1633 10.5449Z" fill="#4285F4"/>
<path d="M7.58835 13.5225L6.99082 13.9707L4.87573 15.5852C6.21897 18.1961 8.97204 19.9998 12.1631 19.9998C14.3672 19.9998 16.2151 19.287 17.5657 18.0653L14.9164 16.0507C14.1891 16.5307 13.2614 16.8216 12.1631 16.8216C10.0407 16.8216 8.23738 15.418 7.59169 13.5271L7.58835 13.5225Z" fill="#34A853"/>
<path d="M4.87564 8.41406C4.31908 9.49038 4 10.7049 4 11.9995C4 13.294 4.31908 14.5085 4.87564 15.5849C4.87564 15.5921 7.59186 13.5194 7.59186 13.5194C7.42859 13.0394 7.33209 12.5304 7.33209 11.9994C7.33209 11.4684 7.42859 10.9593 7.59186 10.4793L4.87564 8.41406Z" fill="#FBBC05"/>
<path d="M12.1633 7.18545C13.3656 7.18545 14.4342 7.59271 15.2876 8.37817L17.6253 6.0873C16.2078 4.79278 14.3674 4 12.1633 4C8.97221 4 6.21897 5.79636 4.87573 8.41454L7.59186 10.48C8.23747 8.58907 10.0409 7.18545 12.1633 7.18545Z" fill="#EA4335"/>
</svg>
